<?xml version="1.0" standalone="no"?>
<!DOCTYPE svg PUBLIC "-//W3C//DTD SVG 20010904//EN"
 "http://www.w3.org/TR/2001/REC-SVG-20010904/DTD/svg10.dtd">
<svg version="1.0" xmlns="http://www.w3.org/2000/svg"
 width="1532.000000pt" height="320.000000pt" viewBox="0 0 1532.000000 320.000000"
 preserveAspectRatio="xMidYMid meet">
<metadata>
Created by potrace 1.16, written by Peter Selinger 2001-2019
</metadata>
<g transform="translate(0.000000,320.000000) scale(0.100000,-0.100000)"
fill="#ffffff" stroke="none">
<path d="M6988 3093 c34 -7 26 -23 -11 -23 -20 0 -39 -8 -50 -20 -9 -11 -24
-20 -32 -20 -8 0 -15 -4 -15 -9 0 -5 -13 -12 -30 -16 -16 -4 -30 -13 -30 -21
0 -8 -6 -14 -14 -14 -8 0 -17 -7 -20 -16 -3 -8 -10 -12 -16 -9 -6 3 -7 -1 -4
-10 5 -11 0 -18 -15 -22 -11 -3 -18 -9 -15 -14 3 -5 -1 -12 -10 -15 -8 -3 -20
-20 -26 -37 -9 -26 -13 -29 -20 -17 -7 11 -10 0 -10 -37 0 -58 -8 -86 -21 -77
-5 3 -9 -28 -9 -70 0 -56 3 -75 13 -74 8 2 13 -17 15 -65 2 -38 7 -65 12 -62
5 3 12 -6 16 -20 3 -14 12 -25 20 -25 8 0 14 -6 14 -13 0 -7 9 -23 20 -35 11
-12 20 -26 20 -32 0 -5 7 -10 15 -10 9 0 18 -7 21 -15 4 -8 15 -15 25 -15 10
0 19 -6 19 -14 0 -8 11 -17 25 -20 14 -4 23 -11 20 -16 -4 -6 10 -10 34 -10
46 0 73 -9 65 -21 -3 -5 41 -9 101 -9 60 0 104 4 101 9 -3 5 1 12 10 15 25 10
158 7 174 -4 8 -5 11 -10 5 -11 -5 -1 13 -5 40 -8 32 -4 49 -10 48 -18 -2 -8
7 -13 21 -13 14 0 31 -6 38 -13 7 -7 21 -16 31 -20 10 -4 15 -11 12 -17 -3 -5
2 -10 12 -10 10 0 26 -8 35 -17 25 -27 46 -43 56 -43 4 0 19 -13 32 -30 14
-16 30 -29 37 -30 7 0 25 -13 41 -28 16 -16 37 -32 46 -35 10 -4 14 -11 11
-17 -3 -5 2 -10 11 -10 10 0 24 -7 33 -15 69 -64 83 -75 96 -75 8 0 15 -7 15
-15 0 -8 7 -15 15 -15 8 0 19 -9 25 -20 6 -11 17 -20 25 -20 8 0 15 -4 15 -10
0 -5 7 -10 16 -10 9 0 18 -9 21 -20 3 -11 9 -20 14 -20 12 0 49 -32 49 -43 0
-5 7 -16 16 -24 8 -9 13 -24 11 -34 -3 -11 0 -16 8 -13 8 4 16 -6 20 -24 3
-17 13 -33 21 -36 8 -3 14 -17 14 -31 0 -14 7 -28 15 -31 12 -5 15 -26 15
-105 0 -79 -3 -101 -15 -105 -8 -4 -15 -12 -15 -20 0 -8 -7 -14 -16 -14 -8 0
-13 -4 -10 -9 3 -5 -6 -21 -19 -35 -14 -15 -25 -31 -25 -37 0 -5 -14 -9 -30
-9 -18 0 -29 -5 -28 -12 2 -6 -6 -14 -17 -16 -11 -2 -24 -10 -28 -18 -4 -8
-17 -14 -27 -14 -11 0 -20 -7 -20 -15 0 -10 -10 -15 -30 -15 -20 0 -30 -5 -30
-15 0 -9 -9 -15 -25 -15 -15 0 -24 -5 -23 -12 2 -8 -11 -14 -35 -16 -20 -2
-35 -7 -32 -11 7 -12 -93 -22 -140 -14 -31 5 -35 8 -20 14 13 5 -2 8 -42 8
-67 1 -96 8 -87 22 3 5 -33 9 -80 9 -64 0 -85 -3 -84 -13 2 -8 -13 -13 -42
-15 -26 -2 -48 -10 -53 -18 -4 -8 -19 -14 -32 -14 -16 0 -25 -6 -25 -15 0 -8
-9 -15 -20 -15 -11 0 -19 -6 -18 -12 2 -7 -7 -14 -20 -16 -12 -2 -20 -8 -17
-13 4 -5 -1 -12 -9 -15 -9 -3 -13 -10 -10 -15 3 -5 -2 -12 -10 -15 -9 -3 -16
-12 -16 -20 0 -8 -7 -14 -15 -14 -13 0 -20 -18 -16 -42 0 -5 -6 -8 -14 -8 -11
0 -15 -12 -15 -50 0 -36 -4 -52 -15 -56 -12 -5 -15 -25 -15 -90 0 -68 3 -84
15 -84 12 0 15 -13 15 -55 0 -44 3 -53 15 -49 11 5 15 -1 15 -20 0 -16 6 -26
15 -26 8 0 15 -7 15 -15 0 -8 7 -15 15 -15 9 0 19 -8 22 -17 11 -27 61 -72 88
-79 14 -3 25 -10 25 -15 0 -5 6 -9 13 -9 8 0 22 -9 33 -21 17 -19 27 -20 164
-17 123 2 149 6 164 20 10 10 23 18 31 18 7 0 15 7 19 15 3 8 12 15 21 15 18
0 29 9 81 60 29 28 37 32 45 20 7 -11 8 -7 3 13 -5 20 -2 27 9 27 8 0 18 12
21 26 4 15 14 33 21 41 8 8 15 30 15 48 0 39 17 56 22 23 2 -13 1 43 -1 125
-4 163 2 217 24 217 8 0 15 7 15 15 0 8 5 15 10 15 6 0 10 7 10 15 0 8 9 15
20 15 11 0 20 7 20 15 0 10 10 15 30 15 20 0 30 5 30 15 0 9 9 15 25 15 14 0
24 5 23 12 -2 6 7 14 20 17 13 3 23 11 22 16 0 6 13 12 30 15 17 3 30 10 30
15 0 6 13 12 30 15 17 3 29 10 28 15 -3 11 195 20 221 10 13 -5 14 -7 1 -15
-11 -7 -1 -10 32 -10 25 0 54 -3 64 -7 16 -6 16 -7 -2 -14 -12 -5 -2 -7 31 -7
37 0 43 2 25 7 -24 7 -24 7 9 14 18 4 44 7 57 7 15 0 24 6 24 15 0 10 10 15
30 15 18 0 29 5 28 12 -2 7 7 14 19 16 14 2 20 8 16 18 -3 9 1 14 12 14 9 0
13 5 10 10 -3 6 1 13 9 16 9 3 16 12 16 20 0 8 6 14 14 14 8 0 17 12 21 27 5
21 8 24 16 12 6 -9 9 1 9 34 0 33 5 49 15 53 11 5 15 22 14 73 0 36 -3 60 -6
53 -10 -24 -23 0 -23 44 0 32 -4 44 -15 44 -9 0 -15 9 -15 25 0 16 -6 25 -15
25 -8 0 -15 9 -15 20 0 11 -7 20 -15 20 -8 0 -15 7 -15 15 0 8 -7 15 -15 15
-8 0 -15 7 -15 16 0 8 -5 12 -11 9 -6 -4 -19 2 -30 14 -11 12 -28 21 -38 21
-11 0 -21 7 -25 15 -4 12 -32 15 -161 15 -88 0 -155 4 -155 9 0 5 8 12 18 14
9 3 -11 5 -45 6 -49 1 -63 4 -63 16 0 9 -10 15 -26 15 -19 0 -25 4 -20 15 4
11 -2 15 -20 15 -19 0 -25 4 -20 15 4 11 -1 15 -19 15 -16 0 -25 6 -25 15 0 9
-9 15 -21 15 -14 0 -19 5 -16 14 4 10 -2 16 -16 18 -12 2 -21 9 -19 16 1 7 -9
12 -23 12 -16 0 -25 6 -25 15 0 8 -7 15 -16 15 -10 0 -14 6 -10 15 4 10 -1 15
-15 15 -15 0 -19 5 -15 15 4 11 -2 15 -25 15 -24 0 -30 4 -25 15 4 10 -1 15
-14 15 -11 0 -20 7 -20 15 0 9 -9 15 -21 15 -15 0 -19 5 -15 15 4 11 -2 15
-20 15 -19 0 -25 4 -20 15 4 11 -1 15 -19 15 -16 0 -25 6 -25 15 0 8 -9 15
-20 15 -11 0 -20 6 -20 14 0 8 -10 16 -22 18 -13 2 -22 9 -21 16 2 6 -6 12
-17 12 -11 0 -20 7 -20 15 0 8 -9 15 -20 15 -11 0 -20 6 -20 14 0 8 -7 17 -16
20 -8 3 -12 10 -9 16 3 5 -1 10 -9 10 -9 0 -16 6 -16 14 0 8 -7 17 -16 20 -8
3 -12 10 -9 16 3 5 1 10 -4 10 -6 0 -11 13 -11 29 0 16 -6 31 -15 35 -8 3 -15
16 -15 30 0 13 -6 26 -12 28 -9 3 -14 44 -16 144 -2 76 -7 143 -12 149 -4 5
-11 28 -14 49 -5 25 -18 49 -37 65 -16 14 -29 29 -29 34 0 5 -6 14 -12 22 -7
7 -21 21 -30 31 -27 31 -46 44 -63 44 -9 0 -18 7 -21 15 -4 8 -14 15 -24 15
-9 0 -27 9 -40 20 -14 12 -37 20 -61 20 -20 0 -39 4 -41 9 -1 4 -46 10 -98 13
-52 3 -85 3 -72 1z"/>
<path d="M3823 2688 c1 -8 -10 -14 -26 -16 -15 -2 -25 -7 -22 -12 3 -5 -6 -12
-20 -16 -14 -3 -25 -12 -25 -19 0 -8 -8 -21 -17 -31 -15 -15 -18 -37 -18 -137
0 -88 3 -121 13 -125 6 -2 10 -8 6 -13 -3 -5 0 -9 5 -9 6 0 11 -7 11 -15 0 -8
7 -15 15 -15 9 0 18 -7 21 -15 4 -8 17 -15 30 -15 15 0 24 -6 24 -15 0 -12 17
-15 94 -15 74 0 95 3 100 15 3 8 15 15 26 15 11 0 20 7 20 15 0 8 7 15 15 15
8 0 15 7 15 15 0 8 7 15 16 15 8 0 13 4 9 9 -3 6 4 15 15 21 18 10 20 20 20
118 0 107 0 107 -30 132 -16 14 -30 30 -30 37 0 7 -7 13 -15 13 -8 0 -15 6
-15 14 0 7 -14 16 -31 20 -17 3 -28 10 -24 16 4 6 -27 10 -89 10 -72 0 -95 -3
-93 -12z"/>
<path d="M5156 2685 c-4 -10 -20 -15 -50 -15 -30 0 -46 -5 -50 -15 -3 -9 -19
-15 -41 -15 -22 0 -34 -4 -32 -12 1 -7 -12 -15 -31 -18 -18 -3 -31 -9 -30 -15
2 -5 -9 -11 -24 -13 -16 -2 -28 -9 -28 -18 0 -8 -10 -14 -24 -14 -13 0 -26 -7
-30 -15 -3 -8 -12 -15 -21 -15 -8 0 -15 -7 -15 -15 0 -8 -9 -15 -21 -15 -11 0
-17 -5 -14 -10 3 -6 -2 -13 -12 -17 -10 -3 -22 -12 -26 -20 -4 -7 -15 -13 -23
-13 -8 0 -12 -5 -9 -11 4 -6 -2 -13 -14 -16 -11 -3 -19 -9 -16 -13 3 -4 -2
-10 -10 -14 -8 -3 -15 -12 -15 -21 0 -8 -4 -15 -10 -15 -5 0 -10 -7 -10 -15 0
-8 -7 -15 -15 -15 -8 0 -15 -7 -15 -15 0 -8 -6 -15 -14 -15 -8 0 -17 -13 -21
-30 -4 -16 -11 -30 -16 -30 -5 0 -9 -7 -9 -15 0 -8 -7 -15 -15 -15 -10 0 -15
-10 -15 -30 0 -20 -5 -30 -15 -30 -10 0 -15 -10 -15 -30 0 -20 -5 -30 -15 -30
-11 0 -15 -12 -15 -45 0 -33 -4 -45 -15 -45 -11 0 -15 -12 -15 -44 0 -26 -6
-51 -15 -60 -13 -12 -15 -55 -15 -256 0 -139 4 -239 9 -236 12 8 21 -18 21
-64 0 -25 5 -40 15 -44 8 -3 15 -9 14 -13 -6 -34 3 -73 16 -73 10 0 15 -10 15
-30 0 -20 5 -30 15 -30 10 0 15 -10 15 -30 0 -20 5 -30 15 -30 8 0 15 -9 15
-20 0 -11 5 -20 11 -20 5 0 7 -4 4 -10 -3 -5 -1 -10 4 -10 6 0 11 -7 11 -15 0
-8 7 -15 15 -15 8 0 15 -6 15 -14 0 -8 7 -17 16 -20 8 -3 13 -10 10 -15 -3 -5
1 -12 10 -15 8 -3 13 -10 10 -15 -3 -5 1 -12 10 -15 8 -3 12 -10 9 -16 -3 -5
0 -10 7 -10 8 0 25 -13 38 -30 14 -16 31 -29 38 -30 7 0 15 -7 18 -15 4 -8 13
-15 20 -15 8 0 17 -6 20 -14 3 -8 15 -16 26 -19 11 -3 17 -10 14 -16 -4 -5 5
-11 19 -13 14 -2 25 -7 23 -13 -1 -5 11 -13 28 -16 16 -3 28 -10 26 -17 -1 -7
9 -12 23 -12 13 0 28 -6 32 -14 4 -8 24 -16 43 -18 21 -2 34 -8 32 -15 -1 -9
12 -13 43 -13 31 0 47 -5 51 -15 5 -11 22 -15 64 -15 83 0 154 -11 138 -21 -8
-5 6 -9 37 -9 31 0 45 4 37 9 -17 10 56 21 143 21 47 0 64 4 69 15 3 10 19 15
45 15 25 0 41 5 45 15 3 9 18 15 36 15 18 0 29 5 28 12 -2 7 11 15 30 18 18 3
31 10 30 15 -2 6 9 11 25 13 15 2 27 9 27 18 0 8 10 14 25 14 14 0 24 5 23 12
-2 7 7 14 20 16 12 2 20 8 16 13 -3 6 3 13 15 16 12 3 21 12 21 19 0 8 9 14
21 14 12 0 17 4 14 11 -4 6 2 13 14 16 12 3 21 12 21 19 0 8 6 14 13 14 6 1
23 15 37 32 14 17 33 39 43 50 9 10 17 23 17 28 0 6 7 10 15 10 13 0 15 52 15
410 l0 410 -402 -2 -403 -3 -3 -212 -2 -213 190 0 c120 0 190 -4 190 -10 0 -5
-5 -10 -11 -10 -6 0 -9 -33 -8 -92 2 -79 -1 -93 -15 -96 -9 -2 -16 -10 -16
-18 0 -8 -10 -14 -24 -14 -13 0 -26 -7 -30 -15 -3 -8 -14 -15 -25 -15 -10 0
-21 -7 -25 -15 -3 -9 -18 -15 -40 -15 -21 0 -36 -6 -40 -15 -4 -12 -32 -15
-165 -15 -159 0 -196 4 -185 21 3 5 -11 9 -30 9 -25 0 -36 5 -36 14 0 9 -12
16 -27 18 -16 2 -27 8 -25 13 2 5 -7 13 -20 16 -13 3 -22 11 -21 17 2 7 -2 12
-8 12 -18 0 -79 67 -79 85 0 9 -5 13 -10 10 -6 -4 -15 7 -21 24 -6 17 -15 31
-20 31 -5 0 -9 14 -9 30 0 20 -5 30 -15 30 -11 0 -15 12 -15 45 0 33 -4 45
-15 45 -13 0 -15 26 -15 170 0 144 2 170 15 170 11 0 15 12 15 45 0 33 4 45
15 45 10 0 15 10 15 30 0 17 4 30 9 30 5 0 14 14 20 30 5 17 15 30 20 30 6 0
11 5 11 10 0 15 64 80 79 80 6 0 11 7 11 15 0 8 9 15 19 15 10 0 21 7 25 15 3
8 15 15 26 15 11 0 20 7 20 15 0 10 10 15 34 15 21 0 36 6 40 15 4 13 34 15
176 15 142 0 172 -2 176 -15 4 -9 19 -15 40 -15 22 0 37 -6 40 -15 4 -8 15
-15 25 -15 11 0 22 -7 25 -15 4 -8 15 -15 25 -15 10 0 19 -7 19 -15 0 -8 7
-15 15 -15 9 0 18 -7 21 -15 4 -8 12 -15 20 -15 8 0 14 -7 14 -15 0 -8 7 -15
15 -15 17 0 86 66 77 74 -3 3 0 6 6 6 7 0 12 7 12 15 0 9 7 18 15 21 8 4 15
12 15 20 0 8 7 14 15 14 8 0 15 7 15 15 0 8 7 15 15 15 8 0 14 3 12 8 -1 4 8
18 20 32 13 13 29 36 35 52 7 15 19 28 25 28 8 0 13 14 13 35 0 23 -4 34 -12
32 -7 -1 -12 4 -11 11 2 6 -6 12 -17 12 -11 0 -20 7 -20 15 0 8 -7 15 -15 15
-8 0 -15 6 -15 14 0 7 -9 16 -21 19 -12 3 -18 10 -15 16 4 5 -4 11 -16 13 -13
2 -22 9 -20 16 1 7 -9 12 -23 12 -16 0 -25 6 -25 15 0 8 -9 15 -20 15 -11 0
-23 7 -26 15 -4 8 -14 15 -24 15 -28 0 -51 11 -44 21 3 5 -11 9 -31 9 -22 0
-38 6 -41 15 -4 10 -20 15 -44 15 -46 0 -72 9 -64 21 3 5 -88 9 -214 9 -186 0
-221 -2 -226 -15z"/>
<path d="M11666 2685 c-3 -8 -17 -15 -31 -15 -16 0 -24 -4 -20 -11 4 -6 -2
-13 -14 -16 -12 -3 -21 -12 -21 -19 0 -8 -7 -14 -15 -14 -9 0 -18 -12 -21 -29
-4 -17 -12 -32 -20 -35 -20 -8 -20 -164 0 -172 8 -3 18 -19 21 -35 4 -16 13
-29 21 -29 8 0 14 -7 14 -15 0 -8 7 -15 15 -15 8 0 15 -6 15 -14 0 -9 12 -16
28 -18 15 -2 26 -8 25 -15 -4 -20 183 -18 191 2 3 8 15 15 26 15 11 0 20 7 20
15 0 8 7 15 15 15 8 0 15 7 15 15 0 8 6 15 14 15 20 0 26 33 26 150 0 117 -6
150 -26 150 -8 0 -14 7 -14 15 0 8 -7 15 -15 15 -8 0 -15 7 -15 15 0 8 -9 15
-20 15 -11 0 -23 7 -26 15 -5 12 -25 15 -94 15 -69 0 -89 -3 -94 -15z"/>
<path d="M8788 2301 c11 -7 10 -10 -3 -15 -9 -3 -25 -6 -36 -6 -10 0 -18 -6
-16 -12 1 -7 -8 -14 -20 -16 -13 -2 -23 -10 -23 -18 0 -8 -7 -14 -15 -14 -8 0
-15 -7 -15 -15 0 -8 -6 -15 -14 -15 -8 0 -17 -12 -21 -27 -3 -15 -12 -31 -18
-35 -8 -5 -12 -41 -12 -106 0 -80 3 -102 18 -116 9 -10 17 -21 17 -26 0 -15
67 -78 90 -85 11 -3 20 -10 20 -15 0 -4 16 -11 35 -14 19 -4 35 -11 35 -16 0
-6 23 -10 50 -10 28 0 50 4 50 10 0 5 15 12 34 16 19 3 37 12 40 20 3 8 15 14
26 14 24 0 57 31 70 66 6 14 14 22 20 19 5 -3 10 2 10 12 0 10 7 31 15 47 21
40 21 174 0 182 -8 4 -15 14 -15 23 0 9 -9 23 -20 31 -11 8 -20 20 -20 26 0 6
-9 14 -21 17 -12 3 -18 10 -14 16 4 7 -4 11 -19 11 -16 0 -26 6 -26 14 0 9
-12 16 -27 18 -16 2 -27 8 -25 16 1 9 -20 12 -80 12 -49 0 -78 -4 -70 -9z"/>
<path d="M7103 2088 c1 -8 -14 -15 -43 -18 -25 -3 -44 -9 -42 -15 1 -5 -9 -11
-23 -13 -14 -2 -25 -10 -25 -18 0 -8 -10 -14 -25 -14 -18 0 -23 -4 -19 -15 4
-10 0 -15 -15 -15 -12 0 -21 -6 -21 -15 0 -8 -7 -15 -15 -15 -8 0 -15 -7 -15
-15 0 -24 -27 -18 -34 8 -3 12 -6 46 -6 75 l0 52 -207 -2 -208 -3 -3 -737 -2
-738 225 0 225 0 0 424 c0 364 2 427 15 440 8 8 15 26 15 40 0 16 6 26 15 26
8 0 15 7 15 15 0 9 7 18 15 21 8 4 15 12 15 20 0 8 6 14 14 14 8 0 16 7 20 15
3 8 12 15 21 15 8 0 15 4 15 10 0 5 12 13 27 16 15 4 34 13 41 21 9 8 39 13
88 13 43 0 74 4 74 10 0 6 11 10 25 10 14 0 25 -4 25 -10 0 -6 35 -10 85 -10
69 0 85 3 85 15 0 8 4 15 9 15 5 0 10 66 13 146 3 103 8 148 17 153 7 5 11 19
9 32 -3 21 -9 24 -46 27 -33 2 -42 7 -38 18 5 12 -20 14 -159 14 -127 0 -164
-3 -162 -12z"/>
<path d="M3700 1330 l0 -740 223 2 222 3 3 715 c1 393 0 725 -3 738 -5 22 -6
22 -225 22 l-220 0 0 -740z"/>
<path d="M9154 2048 c-4 -13 -9 -346 -11 -740 l-4 -718 225 0 226 0 2 438 c2
343 6 436 16 434 8 -1 12 12 12 39 0 64 69 149 121 149 16 0 29 5 29 10 0 6
14 10 30 10 17 0 30 -4 30 -9 0 -4 19 -11 42 -14 24 -3 44 -11 46 -16 2 -6 10
-11 18 -11 8 0 14 -7 14 -16 0 -8 7 -22 15 -30 9 -10 15 -34 15 -65 0 -28 4
-48 9 -45 18 11 21 -49 21 -456 l0 -418 225 0 225 0 0 469 c0 404 2 472 15
485 8 8 15 21 15 30 0 26 59 76 91 76 16 0 29 5 29 10 0 6 14 10 30 10 17 0
30 -4 30 -9 0 -4 19 -11 42 -14 24 -3 44 -11 46 -16 2 -6 10 -11 18 -11 8 0
14 -7 14 -16 0 -8 7 -22 15 -30 8 -9 15 -33 15 -55 0 -22 4 -38 9 -35 5 3 12
-1 15 -10 3 -9 6 -211 6 -450 l0 -434 225 0 225 0 0 494 c0 369 -3 495 -12
498 -6 2 -13 31 -16 66 -2 34 -8 62 -13 62 -5 0 -12 18 -15 41 -4 22 -13 43
-20 46 -8 3 -14 11 -14 19 0 8 -4 14 -9 14 -5 0 -12 14 -16 30 -4 17 -13 30
-21 30 -8 0 -14 7 -14 15 0 8 -7 15 -15 15 -8 0 -15 7 -15 15 0 9 -9 15 -21
15 -14 0 -19 5 -16 14 4 10 -2 16 -21 18 -15 2 -26 9 -24 16 1 7 -9 12 -28 12
-20 0 -30 5 -30 14 0 11 -15 16 -52 18 -36 2 -52 7 -50 16 1 9 -27 12 -118 12
-91 0 -119 -3 -117 -12 1 -9 -14 -14 -45 -16 -34 -2 -48 -7 -48 -18 0 -9 -11
-14 -30 -14 -20 0 -30 -5 -30 -15 0 -9 -9 -15 -25 -15 -16 0 -25 -6 -25 -15 0
-8 -9 -15 -20 -15 -11 0 -20 -7 -20 -15 0 -8 -7 -15 -15 -15 -8 0 -15 -7 -15
-15 0 -8 -7 -15 -15 -15 -9 0 -12 -6 -9 -15 4 -9 0 -15 -9 -15 -13 0 -31 33
-28 53 1 4 -8 7 -19 7 -11 0 -20 7 -20 15 0 8 -9 15 -20 15 -11 0 -20 7 -20
15 0 8 -9 15 -20 15 -11 0 -20 7 -20 15 0 10 -10 15 -30 15 -19 0 -30 5 -30
14 0 11 -14 16 -47 18 -32 2 -47 7 -46 16 2 9 -27 12 -122 12 -106 0 -124 -2
-119 -15 5 -12 -3 -15 -40 -15 -34 0 -46 -4 -46 -15 0 -10 -10 -15 -30 -15
-20 0 -30 -5 -30 -15 0 -9 -9 -15 -25 -15 -18 0 -23 -4 -19 -15 4 -10 0 -15
-14 -15 -20 0 -32 24 -32 68 0 13 -6 22 -15 22 -8 0 -15 7 -15 15 0 13 -27 15
-184 15 -181 0 -184 0 -192 -22z"/>
<path d="M11547 2063 c-4 -3 -7 -336 -7 -740 l0 -733 215 0 215 0 0 740 0 740
-208 0 c-115 0 -212 -3 -215 -7z"/>
<path d="M7744 1605 c-3 -8 -14 -17 -25 -20 -10 -4 -19 -12 -19 -18 0 -7 -9
-19 -20 -27 -11 -8 -20 -22 -20 -32 0 -10 -6 -18 -13 -18 -9 0 -14 -22 -16
-79 l-2 -79 37 -36 c20 -20 33 -36 29 -36 -5 0 0 -7 11 -15 10 -8 15 -15 9
-16 -5 0 1 -4 15 -8 14 -4 24 -13 23 -19 -2 -9 30 -12 115 -11 64 0 111 3 104
6 -17 7 -5 23 19 23 11 0 17 5 14 10 -3 6 1 13 9 16 9 3 16 12 16 20 0 8 5 14
10 14 6 0 10 6 10 13 0 7 9 18 20 25 17 10 20 23 20 87 0 56 -4 77 -14 81 -8
3 -17 17 -21 31 -3 14 -16 34 -28 44 -72 62 -64 59 -174 59 -82 0 -105 -3
-109 -15z"/>
<path d="M8808 851 c11 -7 10 -10 -3 -15 -9 -3 -25 -6 -36 -6 -10 0 -18 -3
-16 -8 1 -4 -8 -18 -20 -32 -13 -13 -23 -30 -23 -37 0 -7 -4 -13 -9 -13 -5 0
-12 -14 -16 -30 -4 -17 -11 -28 -16 -24 -5 3 -9 -17 -9 -45 0 -28 4 -51 9 -51
5 0 12 -13 16 -30 4 -16 13 -30 21 -30 8 0 14 -6 14 -14 0 -8 7 -17 16 -20 8
-3 13 -10 10 -14 -10 -17 37 -43 85 -49 33 -4 46 -9 37 -14 -8 -6 2 -9 27 -9
25 0 35 3 27 9 -9 5 4 10 37 14 48 6 91 33 91 57 0 6 7 10 15 10 8 0 15 7 15
15 0 8 7 15 15 15 12 0 15 18 15 105 0 87 -3 105 -15 105 -8 0 -15 6 -15 14 0
8 -7 17 -16 20 -8 3 -13 10 -10 15 3 5 -4 11 -15 14 -12 3 -18 10 -15 15 3 5
-11 13 -32 17 -31 6 -34 9 -17 15 12 5 -19 9 -80 9 -58 0 -94 -3 -87 -8z"/>
</g>
</svg>
